<?xml version="1.0" encoding="utf-8"?>
<svg xmlns="http://www.w3.org/2000/svg" style="margin: auto; background: none; display: block; shape-rendering: auto; animation-play-state: running; animation-delay: 0s;" width="286" height="250" preserveAspectRatio="xMidYMid">
<style type="text/css" style="animation-play-state: running; animation-delay: 0s;">
  text {
    text-anchor: middle; font-size: 63px; opacity: 0;
  }
</style>
<g style="transform-origin: 143px 125px; transform: scale(1); animation-play-state: running; animation-delay: 0s;">
<g transform="translate(143,125)" style="animation-play-state: running; animation-delay: 0s;">
  <g transform="translate(0,0)" style="animation-play-state: running; animation-delay: 0s;"><g class="path" style="opacity: 1; transform-origin: -110px 6.20186px; animation: 1s linear -0.6s infinite normal forwards running fade-161362a7-3173-49f6-81f5-b3dcb521362a;"><path d="M2.52-28.35L3.72-32.76L3.72-32.76Q9.51-32.76 10.96-28.16L10.96-28.16L10.96-28.16Q11.40-28.85 12.32-29.80L12.32-29.80L12.32-29.80Q13.23-30.74 14.55-31.56L14.55-31.56L14.55-31.56Q15.88-32.38 17.58-32.95L17.58-32.95L17.58-32.95Q19.28-33.52 21.36-33.52L21.36-33.52L21.36-33.52Q24.19-33.52 26.81-32.38L26.81-32.38L26.81-32.38Q29.42-31.25 31.41-29.11L31.41-29.11L31.41-29.11Q33.39-26.96 34.59-23.81L34.59-23.81L34.59-23.81Q35.78-20.66 35.78-16.70L35.78-16.70L35.78-16.70Q35.78-12.79 34.62-9.58L34.62-9.58L34.62-9.58Q33.45-6.36 31.47-4.06L31.47-4.06L31.47-4.06Q29.48-1.76 26.90-0.50L26.90-0.50L26.90-0.50Q24.32 0.76 21.48 0.76L21.48 0.76L21.48 0.76Q18.52 0.76 16.03-0.41L16.03-0.41L16.03-0.41Q13.54-1.57 11.91-3.09L11.91-3.09L11.91 13.86L6.24 13.86L6.24-24.38L6.24-24.38Q6.24-26.52 5.20-27.44L5.20-27.44L5.20-27.44Q4.16-28.35 2.52-28.35L2.52-28.35zM29.99-16.51L29.99-16.51L29.99-16.51Q29.99-19.34 29.20-21.58L29.20-21.58L29.20-21.58Q28.41-23.81 27.06-25.39L27.06-25.39L27.06-25.39Q25.70-26.96 23.91-27.78L23.91-27.78L23.91-27.78Q22.11-28.60 20.10-28.60L20.10-28.60L20.10-28.60Q17.39-28.60 15.21-27.25L15.21-27.25L15.21-27.25Q13.04-25.89 11.91-24.32L11.91-24.32L11.91-8.19L11.91-8.19Q13.54-6.49 15.66-5.39L15.66-5.39L15.66-5.39Q17.77-4.28 20.35-4.28L20.35-4.28L20.35-4.28Q22.49-4.28 24.25-5.17L24.25-5.17L24.25-5.17Q26.02-6.05 27.31-7.65L27.31-7.65L27.31-7.65Q28.60-9.26 29.30-11.50L29.30-11.50L29.30-11.50Q29.99-13.73 29.99-16.51" fill="#645481" stroke="none" stroke-width="none" transform="translate(-129.15000915527344,16.03185671719638)" style="fill: rgb(100, 84, 129); animation-play-state: running; animation-delay: 0s;"></path></g><g class="path" style="opacity: 1; transform-origin: -82.655px -0.348143px; animation: 1s linear -0.54s infinite normal forwards running fade-161362a7-3173-49f6-81f5-b3dcb521362a;"><path d="M49.33-32.76L49.33 0L43.66 0L43.66-32.76L49.33-32.76" fill="#645481" stroke="none" stroke-width="none" transform="translate(-129.15000915527344,16.03185671719638)" style="fill: rgb(100, 84, 129); animation-play-state: running; animation-delay: 0s;"></path></g><g class="path" style="opacity: 1; transform-origin: -82.66px -26.3031px; animation: 1s linear -0.48s infinite normal forwards running fade-161362a7-3173-49f6-81f5-b3dcb521362a;"><path d="M46.49-38.37L46.49-38.37L46.49-38.37Q44.86-38.37 43.69-39.53L43.69-39.53L43.69-39.53Q42.52-40.70 42.52-42.34L42.52-42.34L42.52-42.34Q42.52-44.16 43.60-45.23L43.60-45.23L43.60-45.23Q44.67-46.30 46.49-46.30L46.49-46.30L46.49-46.30Q48.13-46.30 49.30-45.14L49.30-45.14L49.30-45.14Q50.46-43.97 50.46-42.34L50.46-42.34L50.46-42.34Q50.46-40.51 49.39-39.44L49.39-39.44L49.39-39.44Q48.32-38.37 46.49-38.37" fill="#645481" stroke="none" stroke-width="none" transform="translate(-129.15000915527344,16.03185671719638)" style="fill: rgb(100, 84, 129); animation-play-state: running; animation-delay: 0s;"></path></g><g class="path" style="opacity: 1; transform-origin: -66.905px -0.348143px; animation: 1s linear -0.42s infinite normal forwards running fade-161362a7-3173-49f6-81f5-b3dcb521362a;"><path d="M65.08-32.76L65.08 0L59.41 0L59.41-32.76L65.08-32.76" fill="#645481" stroke="none" stroke-width="none" transform="translate(-129.15000915527344,16.03185671719638)" style="fill: rgb(100, 84, 129); animation-play-state: running; animation-delay: 0s;"></path></g><g class="path" style="opacity: 1; transform-origin: -66.91px -26.3031px; animation: 1s linear -0.36s infinite normal forwards running fade-161362a7-3173-49f6-81f5-b3dcb521362a;"><path d="M62.24-38.37L62.24-38.37L62.24-38.37Q60.61-38.37 59.44-39.53L59.44-39.53L59.44-39.53Q58.27-40.70 58.27-42.34L58.27-42.34L58.27-42.34Q58.27-44.16 59.35-45.23L59.35-45.23L59.35-45.23Q60.42-46.30 62.24-46.30L62.24-46.30L62.24-46.30Q63.88-46.30 65.05-45.14L65.05-45.14L65.05-45.14Q66.21-43.97 66.21-42.34L66.21-42.34L66.21-42.34Q66.21-40.51 65.14-39.44L65.14-39.44L65.14-39.44Q64.07-38.37 62.24-38.37" fill="#645481" stroke="none" stroke-width="none" transform="translate(-129.15000915527344,16.03185671719638)" style="fill: rgb(100, 84, 129); animation-play-state: running; animation-delay: 0s;"></path></g><g class="path" style="opacity: 1; transform-origin: -41.425px 6.20186px; animation: 1s linear -0.3s infinite normal forwards running fade-161362a7-3173-49f6-81f5-b3dcb521362a;"><path d="M97.34-32.76L102.50-32.76L102.50 13.86L96.83 13.86L96.83-3.34L96.83-3.34Q96.14-2.65 95.22-1.92L95.22-1.92L95.22-1.92Q94.31-1.20 93.15-0.60L93.15-0.60L93.15-0.60Q91.98 0 90.59 0.38L90.59 0.38L90.59 0.38Q89.21 0.76 87.63 0.76L87.63 0.76L87.63 0.76Q84.80 0.76 82.12-0.35L82.12-0.35L82.12-0.35Q79.44-1.45 77.43-3.62L77.43-3.62L77.43-3.62Q75.41-5.80 74.18-8.95L74.18-8.95L74.18-8.95Q72.95-12.10 72.95-16.25L72.95-16.25L72.95-16.25Q72.95-20.10 74.15-23.28L74.15-23.28L74.15-23.28Q75.35-26.46 77.43-28.73L77.43-28.73L77.43-28.73Q79.51-31.00 82.28-32.26L82.28-32.26L82.28-32.26Q85.05-33.52 88.20-33.52L88.20-33.52L88.20-33.52Q91.03-33.52 93.33-32.54L93.33-32.54L93.33-32.54Q95.63-31.56 97.34-30.11L97.34-30.11L97.34-32.76zM88.77-28.60L88.77-28.60L88.77-28.60Q86.75-28.60 84.92-27.78L84.92-27.78L84.92-27.78Q83.10-26.96 81.71-25.39L81.71-25.39L81.71-25.39Q80.33-23.81 79.54-21.58L79.54-21.58L79.54-21.58Q78.75-19.34 78.75-16.44L78.75-16.44L78.75-16.44Q78.75-13.61 79.57-11.34L79.57-11.34L79.57-11.34Q80.39-9.07 81.81-7.50L81.81-7.50L81.81-7.50Q83.22-5.92 85.05-5.10L85.05-5.10L85.05-5.10Q86.88-4.28 88.89-4.28L88.89-4.28L88.89-4.28Q91.41-4.28 93.49-5.48L93.49-5.48L93.49-5.48Q95.57-6.68 96.83-8.25L96.83-8.25L96.83-25.96L96.83-25.96Q95.13-27.15 93.08-27.88L93.08-27.88L93.08-27.88Q91.03-28.60 88.77-28.60" fill="#645481" stroke="none" stroke-width="none" transform="translate(-129.15000915527344,16.03185671719638)" style="fill: rgb(100, 84, 129); animation-play-state: running; animation-delay: 0s;"></path></g><g class="path" style="opacity: 1; transform-origin: -1.48001px 0.0318565px; animation: 1s linear -0.24s infinite normal forwards running fade-161362a7-3173-49f6-81f5-b3dcb521362a;"><path d="M143.07-4.09L141.88 0.32L141.88 0.32Q138.85 0.32 137.09-0.88L137.09-0.88L137.09-0.88Q135.32-2.08 134.63-4.35L134.63-4.35L134.63-4.35Q132.43-2.08 129.56-0.66L129.56-0.66L129.56-0.66Q126.69 0.76 123.29 0.76L123.29 0.76L123.29 0.76Q121.15 0.76 119.16 0.09L119.16 0.09L119.16 0.09Q117.18-0.57 115.64-2.02L115.64-2.02L115.64-2.02Q114.09-3.46 113.18-5.80L113.18-5.80L113.18-5.80Q112.27-8.13 112.27-11.47L112.27-11.47L112.27-32.76L117.94-32.76L117.94-12.22L117.94-12.22Q117.94-8.38 119.54-6.33L119.54-6.33L119.54-6.33Q121.15-4.28 124.36-4.28L124.36-4.28L124.36-4.28Q127.01-4.28 129.40-5.32L129.40-5.32L129.40-5.32Q131.80-6.36 133.69-8.13L133.69-8.13L133.69-32.76L139.36-32.76L139.36-8.51L139.36-8.51Q139.36-7.12 139.67-6.27L139.67-6.27L139.67-6.27Q139.99-5.42 140.49-4.95L140.49-4.95L140.49-4.95Q140.99-4.47 141.69-4.28L141.69-4.28L141.69-4.28Q142.38-4.09 143.07-4.09L143.07-4.09" fill="#645481" stroke="none" stroke-width="none" transform="translate(-129.15000915527344,16.03185671719638)" style="fill: rgb(100, 84, 129); animation-play-state: running; animation-delay: 0s;"></path></g><g class="path" style="opacity: 1; transform-origin: 33.11px -0.348145px; animation: 1s linear -0.18s infinite normal forwards running fade-161362a7-3173-49f6-81f5-b3dcb521362a;"><path d="M176.53-14.05L153.59-14.05L153.59-14.05Q154.16-9.45 156.81-6.87L156.81-6.87L156.81-6.87Q159.45-4.28 163.80-4.28L163.80-4.28L163.80-4.28Q166.63-4.28 168.90-4.88L168.90-4.88L168.90-4.88Q171.17-5.48 173.25-6.43L173.25-6.43L174.57-1.57L174.57-1.57Q172.31-0.50 169.47 0.13L169.47 0.13L169.47 0.13Q166.63 0.76 163.11 0.76L163.11 0.76L163.11 0.76Q159.58 0.76 156.74-0.41L156.74-0.41L156.74-0.41Q153.91-1.57 151.92-3.75L151.92-3.75L151.92-3.75Q149.94-5.92 148.87-9.10L148.87-9.10L148.87-9.10Q147.80-12.29 147.80-16.38L147.80-16.38L147.80-16.38Q147.80-20.03 148.87-23.18L148.87-23.18L148.87-23.18Q149.94-26.33 151.89-28.63L151.89-28.63L151.89-28.63Q153.85-30.93 156.56-32.22L156.56-32.22L156.56-32.22Q159.26-33.52 162.60-33.52L162.60-33.52L162.60-33.52Q166.13-33.52 168.78-32.32L168.78-32.32L168.78-32.32Q171.42-31.12 173.19-29.04L173.19-29.04L173.19-29.04Q174.95-26.96 175.83-24.19L175.83-24.19L175.83-24.19Q176.72-21.42 176.72-18.33L176.72-18.33L176.72-18.33Q176.72-16.13 176.53-14.05L176.53-14.05zM162.48-28.60L162.48-28.60L162.48-28.60Q158.76-28.60 156.40-26.08L156.40-26.08L156.40-26.08Q154.03-23.56 153.53-18.65L153.53-18.65L171.49-18.65L171.49-18.65Q171.49-23.44 169.09-26.02L169.09-26.02L169.09-26.02Q166.70-28.60 162.48-28.60" fill="#645481" stroke="none" stroke-width="none" transform="translate(-129.15000915527344,16.03185671719638)" style="fill: rgb(100, 84, 129); animation-play-state: running; animation-delay: 0s;"></path></g><g class="path" style="opacity: 1; transform-origin: 59.535px 12.5669px; animation: 1s linear -0.12s infinite normal forwards running fade-161362a7-3173-49f6-81f5-b3dcb521362a;"><path d="M184.46-3.46L184.46-3.46L184.46-3.46Q184.46-5.42 185.57-6.55L185.57-6.55L185.57-6.55Q186.67-7.69 188.68-7.69L188.68-7.69L188.68-7.69Q190.32-7.69 191.61-6.43L191.61-6.43L191.61-6.43Q192.91-5.17 192.91-3.46L192.91-3.46L192.91-3.46Q192.91-1.57 191.71-0.41L191.71-0.41L191.71-0.41Q190.51 0.76 188.68 0.76L188.68 0.76L188.68 0.76Q186.98 0.76 185.72-0.50L185.72-0.50L185.72-0.50Q184.46-1.76 184.46-3.46" fill="#645481" stroke="none" stroke-width="none" transform="translate(-129.15000915527344,16.03185671719638)" style="fill: rgb(100, 84, 129); animation-play-state: running; animation-delay: 0s;"></path></g><g class="path" style="opacity: 1; transform-origin: 82.91px -0.348145px; animation: 1s linear -0.06s infinite normal forwards running fade-161362a7-3173-49f6-81f5-b3dcb521362a;"><path d="M224.22-31.56L222.52-26.77L222.52-26.77Q220.69-27.66 219.11-28.07L219.11-28.07L219.11-28.07Q217.54-28.48 215.59-28.48L215.59-28.48L215.59-28.48Q213.38-28.48 211.46-27.66L211.46-27.66L211.46-27.66Q209.54-26.84 208.15-25.29L208.15-25.29L208.15-25.29Q206.77-23.75 205.98-21.55L205.98-21.55L205.98-21.55Q205.19-19.34 205.19-16.51L205.19-16.51L205.19-16.51Q205.19-13.92 205.92-11.72L205.92-11.72L205.92-11.72Q206.64-9.51 207.96-7.84L207.96-7.84L207.96-7.84Q209.29-6.17 211.11-5.23L211.11-5.23L211.11-5.23Q212.94-4.28 215.21-4.28L215.21-4.28L215.21-4.28Q217.60-4.28 219.30-4.79L219.30-4.79L219.30-4.79Q221.00-5.29 222.96-6.36L222.96-6.36L224.72-1.57L224.72-1.57Q222.71-0.50 220.31 0.13L220.31 0.13L220.31 0.13Q217.92 0.76 214.83 0.76L214.83 0.76L214.83 0.76Q211.30 0.76 208.47-0.50L208.47-0.50L208.47-0.50Q205.63-1.76 203.62-4.03L203.62-4.03L203.62-4.03Q201.60-6.30 200.50-9.45L200.50-9.45L200.50-9.45Q199.40-12.60 199.40-16.38L199.40-16.38L199.40-16.38Q199.40-19.91 200.50-23.03L200.50-23.03L200.50-23.03Q201.60-26.14 203.68-28.48L203.68-28.48L203.68-28.48Q205.76-30.81 208.69-32.16L208.69-32.16L208.69-32.16Q211.62-33.52 215.27-33.52L215.27-33.52L215.27-33.52Q218.11-33.52 220.19-33.01L220.19-33.01L220.19-33.01Q222.26-32.51 224.22-31.56L224.22-31.56" fill="#645481" stroke="none" stroke-width="none" transform="translate(-129.15000915527344,16.03185671719638)" style="fill: rgb(100, 84, 129); animation-play-state: running; animation-delay: 0s;"></path></g><g class="path" style="opacity: 1; transform-origin: 115.355px -0.348145px; animation: 1s linear 0s infinite normal forwards running fade-161362a7-3173-49f6-81f5-b3dcb521362a;"><path d="M255.02-16.38L255.02-16.38L255.02-16.38Q255.02-18.84 254.24-21.04L254.24-21.04L254.24-21.04Q253.45-23.25 252.03-24.89L252.03-24.89L252.03-24.89Q250.61-26.52 248.69-27.50L248.69-27.50L248.69-27.50Q246.77-28.48 244.50-28.48L244.50-28.48L244.50-28.48Q239.53-28.48 236.75-25.20L236.75-25.20L236.75-25.20Q233.98-21.92 233.98-16.51L233.98-16.51L233.98-16.51Q233.98-14.05 234.77-11.81L234.77-11.81L234.77-11.81Q235.56-9.58 236.97-7.91L236.97-7.91L236.97-7.91Q238.39-6.24 240.31-5.26L240.31-5.26L240.31-5.26Q242.23-4.28 244.50-4.28L244.50-4.28L244.50-4.28Q246.96-4.28 248.91-5.17L248.91-5.17L248.91-5.17Q250.87-6.05 252.22-7.65L252.22-7.65L252.22-7.65Q253.57-9.26 254.30-11.47L254.30-11.47L254.30-11.47Q255.02-13.67 255.02-16.38zM228.19-16.38L228.19-16.38L228.19-16.38Q228.19-20.35 229.45-23.53L229.45-23.53L229.45-23.53Q230.71-26.71 232.88-28.92L232.88-28.92L232.88-28.92Q235.05-31.12 238.05-32.32L238.05-32.32L238.05-32.32Q241.04-33.52 244.50-33.52L244.50-33.52L244.50-33.52Q247.91-33.52 250.90-32.32L250.90-32.32L250.90-32.32Q253.89-31.12 256.09-28.92L256.09-28.92L256.09-28.92Q258.30-26.71 259.56-23.56L259.56-23.56L259.56-23.56Q260.82-20.41 260.82-16.51L260.82-16.51L260.82-16.51Q260.82-12.60 259.59-9.42L259.59-9.42L259.59-9.42Q258.36-6.24 256.16-3.97L256.16-3.97L256.16-3.97Q253.95-1.70 250.96-0.47L250.96-0.47L250.96-0.47Q247.97 0.76 244.50 0.76L244.50 0.76L244.50 0.76Q240.97 0.76 237.98-0.50L237.98-0.50L237.98-0.50Q234.99-1.76 232.82-4.03L232.82-4.03L232.82-4.03Q230.64-6.30 229.41-9.45L229.41-9.45L229.41-9.45Q228.19-12.60 228.19-16.38" fill="#645481" stroke="none" stroke-width="none" transform="translate(-129.15000915527344,16.03185671719638)" style="fill: rgb(100, 84, 129); animation-play-state: running; animation-delay: 0s;"></path></g></g>
</g>
</g>
<style id="fade-161362a7-3173-49f6-81f5-b3dcb521362a" data-anikit="">@keyframes fade-161362a7-3173-49f6-81f5-b3dcb521362a
{
  0% {
    animation-timing-function: cubic-bezier(0.2057,0.573,0.3723,0.9184);
    opacity: 1;
  }
  100% {
    opacity: 0;
  }
}</style></svg>